HIERARCHY
ROOT hip
{
	OFFSET 0.000000 0.000000 0.000000
	CHANNELS 6 Xposition Yposition Zposition Xrotation Zrotation Yrotation 
	JOINT abdomen
	{
		OFFSET 0.000000 3.422050 0.000000
		CHANNELS 3 Xrotation Zrotation Yrotation 
		JOINT chest
		{
			OFFSET 0.000000 8.486693 -0.6844110
			CHANNELS 3 Xrotation Zrotation Yrotation 
			JOINT neck
			{
				OFFSET 0.000000 10.26616 -0.2737640
				CHANNELS 3 Xrotation Zrotation Yrotation 
				JOINT head
				{
					OFFSET 0.000000 3.148285 0.000000
					CHANNELS 3 Xrotation Zrotation Yrotation 
					End Site
					{
						OFFSET 0.000000 3.148289 0.000000
					}
				}
			}
			JOINT lCollar
			{
				OFFSET 3.422053 6.707223 -0.8212930
				CHANNELS 3 Yrotation Zrotation Xrotation 
				JOINT lShldr
				{
					OFFSET 3.285171 0.000000 0.000000
					CHANNELS 3 Zrotation Yrotation Xrotation 
					JOINT lForeArm
					{
						OFFSET 10.12928 0.000000 0.000000
						CHANNELS 3 Yrotation Zrotation Xrotation 
						JOINT lHand
						{
							OFFSET 8.486692 0.000000 0.000000
							CHANNELS 3 Zrotation Yrotation Xrotation 
							End Site
							{
								OFFSET 4.106464 0.000000 0.000000
							}
						}
					}
				}
			}
			JOINT rCollar
			{
				OFFSET -3.558935 6.707223 -0.8212930
				CHANNELS 3 Yrotation Zrotation Xrotation 
				JOINT rShldr
				{
					OFFSET -3.148289 0.000000 0.000000
					CHANNELS 3 Zrotation Yrotation Xrotation 
					JOINT rForeArm
					{
						OFFSET -10.26616 0.000000 0.000000
						CHANNELS 3 Yrotation Zrotation Xrotation 
						JOINT rHand
						{
							OFFSET -8.349810 0.000000 0.000000
							CHANNELS 3 Zrotation Yrotation Xrotation 
							End Site
							{
								OFFSET -4.106464 0.000000 0.000000
							}
						}
					}
				}
			}
		}
	}
	JOINT lThigh
	{
		OFFSET 5.338403 -1.642589 1.368821
		CHANNELS 3 Xrotation Zrotation Yrotation 
		JOINT lShin
		{
			OFFSET -2.053232 -20.12167 0.000000
			CHANNELS 3 Xrotation Zrotation Yrotation 
			JOINT lFoot
			{
				OFFSET 0.000000 -19.30038 -1.231939
				CHANNELS 3 Xrotation Yrotation Zrotation 
				End Site
				{
					OFFSET 0.000000 -2.463878 4.653993
				}
			}
		}
	}
	JOINT rThigh
	{
		OFFSET -5.338403 -1.642589 1.368821
		CHANNELS 3 Xrotation Zrotation Yrotation 
		JOINT rShin
		{
			OFFSET 2.053232 -20.12167 0.000000
			CHANNELS 3 Xrotation Zrotation Yrotation 
			JOINT rFoot
			{
				OFFSET 0.000000 -19.30038 -1.231939
				CHANNELS 3 Xrotation Yrotation Zrotation 
				End Site
				{
					OFFSET 0.000000 -2.463878 4.653993
				}
			}
		}
	}
}
MOTION
Frames:	14
Frame Time:	0.03333333
0.000000 43.52852 0.000000 0.000000 0.000000 0.000000 0.000000 0.000000 0.000000 0.000000 0.000000 0.000000 0.000000 0.000000 0.000000 0.000000 0.000000 0.000000 0.000000 0.000000 0.000000 0.000000 0.000000 0.000000 0.000000 0.000000 0.000000 0.000000 0.000000 0.000000 0.000000 0.000000 0.000000 0.000000 0.000000 0.000000 0.000000 0.000000 0.000000 0.000000 0.000000 0.000000 0.000000 0.000000 0.000000 0.000000 0.000000 0.000000 0.000000 0.000000 0.000000 0.000000 0.000000 0.000000 0.000000 0.000000 0.000000 0.000000 0.000000 0.000000 
0.000000 43.52852 0.000000 1.000000 0.000000 0.000000 1.000000 0.000000 0.000000 1.000000 0.000000 0.000000 1.000000 0.000000 0.000000 1.000000 0.000000 0.000000 0.000000 0.000000 1.000000 -78.00000 10.00000 0.000000 -25.00000 0.000000 0.000000 0.000000 0.000000 0.000000 0.000000 0.000000 1.000000 78.00000 -10.00000 0.000000 25.00000 0.000000 0.000000 0.000000 0.000000 0.000000 0.000000 10.00000 0.000000 1.000000 0.000000 0.000000 1.000000 0.000000 0.000000 0.000000 -10.00000 0.000000 1.000000 0.000000 0.000000 1.000000 0.000000 0.000000 
0.000000 43.52852 0.000000 1.000000 0.000000 0.000000 1.000000 0.000000 0.000000 1.000000 0.000000 0.000000 1.000000 0.000000 0.000000 1.000000 0.000000 0.000000 0.000000 0.000000 1.000000 -72.00000 9.230769 -4.615385 -25.00000 0.000000 0.000000 0.000000 0.000000 0.000000 0.000000 0.000000 1.000000 72.00000 -9.230769 -4.615385 25.00000 0.000000 0.000000 0.000000 0.000000 0.000000 0.000000 10.00000 0.000000 1.000000 0.000000 0.000000 1.000000 0.000000 0.000000 0.000000 -10.00000 0.000000 1.000000 0.000000 0.000000 1.000000 0.000000 0.000000 
0.000000 43.52852 0.000000 1.000000 0.000000 0.000000 1.000000 0.000000 0.000000 1.000000 0.000000 0.000000 1.000000 0.000000 0.000000 1.000000 0.000000 0.000000 0.000000 0.000000 1.000000 -66.00000 8.461538 -9.230769 -25.00000 0.000000 0.000000 0.000000 0.000000 0.000000 0.000000 0.000000 1.000000 66.00000 -8.461538 -9.230769 25.00000 0.000000 0.000000 0.000000 0.000000 0.000000 0.000000 10.00000 0.000000 1.000000 0.000000 0.000000 1.000000 0.000000 0.000000 0.000000 -10.00000 0.000000 1.000000 0.000000 0.000000 1.000000 0.000000 0.000000 
0.000000 43.52852 0.000000 1.000000 0.000000 0.000000 1.000000 0.000000 0.000000 1.000000 0.000000 0.000000 1.000000 0.000000 0.000000 1.000000 0.000000 0.000000 0.000000 0.000000 1.000000 -60.00000 7.692307 -13.84615 -25.00000 0.000000 0.000000 0.000000 0.000000 0.000000 0.000000 0.000000 1.000000 60.00000 -7.692307 -13.84615 25.00000 0.000000 0.000000 0.000000 0.000000 0.000000 0.000000 10.00000 0.000000 1.000000 0.000000 0.000000 1.000000 0.000000 0.000000 0.000000 -10.00000 0.000000 1.000000 0.000000 0.000000 1.000000 0.000000 0.000000 
0.000000 43.52852 0.000000 1.000000 0.000000 0.000000 1.000000 0.000000 0.000000 1.000000 0.000000 0.000000 1.000000 0.000000 0.000000 1.000000 0.000000 0.000000 0.000000 0.000000 1.000000 -54.00000 6.923077 -18.46154 -25.00000 0.000000 0.000000 0.000000 0.000000 0.000000 0.000000 0.000000 1.000000 54.00000 -6.923077 -18.46154 25.00000 0.000000 0.000000 0.000000 0.000000 0.000000 0.000000 10.00000 0.000000 1.000000 0.000000 0.000000 1.000000 0.000000 0.000000 0.000000 -10.00000 0.000000 1.000000 0.000000 0.000000 1.000000 0.000000 0.000000 
0.000000 43.52852 0.000000 1.000000 0.000000 0.000000 1.000000 0.000000 0.000000 1.000000 0.000000 0.000000 1.000000 0.000000 0.000000 1.000000 0.000000 0.000000 0.000000 0.000000 1.000000 -48.00000 6.153846 -23.07692 -25.00000 0.000000 0.000000 0.000000 0.000000 0.000000 0.000000 0.000000 1.000000 48.00000 -6.153846 -23.07692 25.00000 0.000000 0.000000 0.000000 0.000000 0.000000 0.000000 10.00000 0.000000 1.000000 0.000000 0.000000 1.000000 0.000000 0.000000 0.000000 -10.00000 0.000000 1.000000 0.000000 0.000000 1.000000 0.000000 0.000000 
0.000000 43.52852 0.000000 1.000000 0.000000 0.000000 1.000000 0.000000 0.000000 1.000000 0.000000 0.000000 1.000000 0.000000 0.000000 1.000000 0.000000 0.000000 0.000000 0.000000 1.000000 -42.00000 5.384615 -27.69231 -25.00000 0.000000 0.000000 0.000000 0.000000 0.000000 0.000000 0.000000 1.000000 42.00000 -5.384615 -27.69231 25.00000 0.000000 0.000000 0.000000 0.000000 0.000000 0.000000 10.00000 0.000000 1.000000 0.000000 0.000000 1.000000 0.000000 0.000000 0.000000 -10.00000 0.000000 1.000000 0.000000 0.000000 1.000000 0.000000 0.000000 
0.000000 43.52852 0.000000 1.000000 0.000000 0.000000 1.000000 0.000000 0.000000 1.000000 0.000000 0.000000 1.000000 0.000000 0.000000 1.000000 0.000000 0.000000 0.000000 0.000000 1.000000 -36.00000 4.615385 -32.30769 -25.00000 0.000000 0.000000 0.000000 0.000000 0.000000 0.000000 0.000000 1.000000 36.00000 -4.615385 -32.30769 25.00000 0.000000 0.000000 0.000000 0.000000 0.000000 0.000000 10.00000 0.000000 1.000000 0.000000 0.000000 1.000000 0.000000 0.000000 0.000000 -10.00000 0.000000 1.000000 0.000000 0.000000 1.000000 0.000000 0.000000 
0.000000 43.52852 0.000000 1.000000 0.000000 0.000000 1.000000 0.000000 0.000000 1.000000 0.000000 0.000000 1.000000 0.000000 0.000000 1.000000 0.000000 0.000000 0.000000 0.000000 1.000000 -30.00000 3.846154 -36.92308 -25.00000 0.000000 0.000000 0.000000 0.000000 0.000000 0.000000 0.000000 1.000000 30.00000 -3.846154 -36.92308 25.00000 0.000000 0.000000 0.000000 0.000000 0.000000 0.000000 10.00000 0.000000 1.000000 0.000000 0.000000 1.000000 0.000000 0.000000 0.000000 -10.00000 0.000000 1.000000 0.000000 0.000000 1.000000 0.000000 0.000000 
0.000000 43.52852 0.000000 1.000000 0.000000 0.000000 1.000000 0.000000 0.000000 1.000000 0.000000 0.000000 1.000000 0.000000 0.000000 1.000000 0.000000 0.000000 0.000000 0.000000 1.000000 -24.00000 3.076923 -41.53846 -25.00000 0.000000 0.000000 0.000000 0.000000 0.000000 0.000000 0.000000 1.000000 24.00000 -3.076923 -41.53846 25.00000 0.000000 0.000000 0.000000 0.000000 0.000000 0.000000 10.00000 0.000000 1.000000 0.000000 0.000000 1.000000 0.000000 0.000000 0.000000 -10.00000 0.000000 1.000000 0.000000 0.000000 1.000000 0.000000 0.000000 
0.000000 43.52852 0.000000 1.000000 0.000000 0.000000 1.000000 0.000000 0.000000 1.000000 0.000000 0.000000 1.000000 0.000000 0.000000 1.000000 0.000000 0.000000 0.000000 0.000000 1.000000 -18.00000 2.307692 -46.15385 -25.00000 0.000000 0.000000 0.000000 0.000000 0.000000 0.000000 0.000000 1.000000 18.00000 -2.307692 -46.15385 25.00000 0.000000 0.000000 0.000000 0.000000 0.000000 0.000000 10.00000 0.000000 1.000000 0.000000 0.000000 1.000000 0.000000 0.000000 0.000000 -10.00000 0.000000 1.000000 0.000000 0.000000 1.000000 0.000000 0.000000 
0.000000 43.52852 0.000000 1.000000 0.000000 0.000000 1.000000 0.000000 0.000000 1.000000 0.000000 0.000000 1.000000 0.000000 0.000000 1.000000 0.000000 0.000000 0.000000 0.000000 1.000000 -12.00000 1.538462 -50.76923 -25.00000 0.000000 0.000000 0.000000 0.000000 0.000000 0.000000 0.000000 1.000000 12.00000 -1.538462 -50.76923 25.00000 0.000000 0.000000 0.000000 0.000000 0.000000 0.000000 10.00000 0.000000 1.000000 0.000000 0.000000 1.000000 0.000000 0.000000 0.000000 -10.00000 0.000000 1.000000 0.000000 0.000000 1.000000 0.000000 0.000000 
0.000000 43.52852 0.000000 1.000000 0.000000 0.000000 1.000000 0.000000 0.000000 1.000000 0.000000 0.000000 1.000000 0.000000 0.000000 1.000000 0.000000 0.000000 0.000000 0.000000 1.000000 -6.000000 0.7692308 -55.38462 -25.00000 0.000000 0.000000 0.000000 0.000000 0.000000 0.000000 0.000000 1.000000 6.000000 -0.7692308 -55.38462 25.00000 0.000000 0.000000 0.000000 0.000000 0.000000 0.000000 10.00000 0.000000 1.000000 0.000000 0.000000 1.000000 0.000000 0.000000 0.000000 -10.00000 0.000000 1.000000 0.000000 0.000000 1.000000 0.000000 0.000000 
